PathFileType	4	(X/Y/Z)	C:\Users\u0145647\OneDrive - KU Leuven\KU Leuven\c3d2osim\CP4\T0\Data\Processed\ViconC3D_CP4_2\CP4_T0_10_gapFilled.trc
DataRate	CameraRate	NumFrames	NumMarkers	Units	OrigDataRate	OrigDataStartFrame	OrigNumFrames
100.000000	100.000000	5	47	mm	100.000000	159	633
Frame#	Time	C7			T10			CLAV			STRN			LSHO			RSHO			RBAK			LASI			RASI			LPSI			RPSI			LLAT			RLAT			LF1			LF2			LF3			LTHI			LKNE			LMEK			RF1			RF2			RF3			RTHI			RKNE			RMEK			LT1			LT2			LT3			LTIB			LANK			LMM			RT1			RT2			RT3			RTIB			RANK			RMM			LHEE			LSTL			LLCA			LTOE			LCM5			RHEE			RSTL			RLCA			RTOE			RCM5
		X1	Y1	Z1	X2	Y2	Z2	X3	Y3	Z3	X4	Y4	Z4	X5	Y5	Z5	X6	Y6	Z6	X7	Y7	Z7	X8	Y8	Z8	X9	Y9	Z9	X10	Y10	Z10	X11	Y11	Z11	X12	Y12	Z12	X13	Y13	Z13	X14	Y14	Z14	X15	Y15	Z15	X16	Y16	Z16	X17	Y17	Z17	X18	Y18	Z18	X19	Y19	Z19	X20	Y20	Z20	X21	Y21	Z21	X22	Y22	Z22	X23	Y23	Z23	X24	Y24	Z24	X25	Y25	Z25	X26	Y26	Z26	X27	Y27	Z27	X28	Y28	Z28	X29	Y29	Z29	X30	Y30	Z30	X31	Y31	Z31	X32	Y32	Z32	X33	Y33	Z33	X34	Y34	Z34	X35	Y35	Z35	X36	Y36	Z36	X37	Y37	Z37	X38	Y38	Z38	X39	Y39	Z39	X40	Y40	Z40	X41	Y41	Z41	X42	Y42	Z42	X43	Y43	Z43	X44	Y44	Z44	X45	Y45	Z45	X46	Y46	Z46	X47	Y47	Z47

159	1.58	-934.32	1415.9	-109.16	-953.74	1154.8	-157.52	-818.56	1333.1	-110.36	-782.25	1186	-116.14	-858.47	1382.2	-326.47	-904.87	1346.1	81.73	-982.22	1314.8	1.4666	-755.96	902.29	-202.88	-828.39	905.47	-16.539	-935.52	938	-210.56	-962.99	949.2	-142.3	-794.34	972.2	-277.02	-902.41	973.83	2.6659	-688.71	676.54	-276.76	-720.64	709.78	-285.3	-715.41	657.71	-291.55	-661.8	598.69	-321.57	-610.13	490.43	-240.54	NaN	NaN	NaN	-903.15	624.37	-12.146	-881.21	656.16	-5.3128	-942.68	660.43	-12.386	-900.04	559.37	19.677	-883.25	439.07	-62.328	NaN	NaN	NaN	-594.58	310.25	-265.72	-571.01	363.1	-246.72	-616.91	349.63	-265.71	-513.17	269.14	-276.65	-524.51	84.372	-232.87	-519.42	98.562	-145.34	-967.3	312.39	-46.334	-927.79	340.65	-62.03	-968.6	365.43	-41.992	-981.04	239.38	-7.68	-1092.1	98.274	-64.522	-1082.2	113.8	-151.46	-568.48	52.586	-188.12	-510.78	68.923	-148.28	-510.38	59.297	-225.72	-396.57	82.136	-179.24	-401.18	75.339	-224.27	-1143.7	112.88	-101.44	-1096.5	80.186	-147.93	-1094.5	72.483	-70.035	-981.24	40.182	-112.01	-1005.9	25.391	-57.482
160	1.59	-923.22	1414.7	-110.13	-942.93	1153.5	-158.73	-807.95	1331.2	-110.32	-771.95	1184.2	-115.75	-845.76	1380.2	-327.03	-895.84	1344.7	80.989	-972.52	1313.6	-0.016843	-744.71	900.89	-201.83	-818.9	904.16	-15.946	-924.29	936.22	-211.11	-952.37	947.45	-143.23	-782.68	970.57	-276.44	-893.29	972.41	2.1164	-677.88	674.37	-275.78	-709.44	707.92	-284.41	-704.94	655.75	-290.2	-651.88	595.93	-320.69	-600.23	488.17	-238.81	NaN	NaN	NaN	-894.45	622.92	-12.402	-872.5	654.72	-5.7667	-933.82	659.04	-12.362	-891.34	558.01	19.617	-875.99	437.49	-62.458	NaN	NaN	NaN	-582.83	307.92	-262.93	-559.89	361.26	-244.95	-605.93	347.02	-262.93	-501.14	268.09	-275.34	-508.39	83.795	-229.17	-501.99	98.692	-142	-961.82	312.17	-46.196	-921.84	339.78	-62.083	-962.35	365.3	-42.047	-976.58	239.29	-7.9135	-1090.6	100.2	-64.446	-1080.5	115.5	-151.15	-550.83	51.54	-183.47	-492.66	69.051	-144.82	-493.55	58.729	-221.84	-379.19	84.512	-178.82	-384.97	77.443	-223.82	-1141.8	115.6	-101.01	-1095.4	82.095	-147.65	-1093.3	74.653	-69.721	-980.67	40.233	-112.09	-1005.4	25.589	-57.725
161	1.6	-911.82	1413.3	-111.26	-932.01	1152.3	-160.05	-797.07	1329.6	-110.46	-761.6	1182.4	-115.26	-832.89	1378.3	-327.58	-886.69	1343.5	80.176	-962.69	1312.6	-1.4814	-733.31	899.63	-200.65	-809.1	902.96	-15.327	-912.91	934.52	-211.61	-941.51	945.74	-143.98	-770.91	968.86	-275.88	-884.35	971.3	1.6622	-666.84	672.12	-274.78	-698.23	705.8	-283.49	-693.96	653.47	-288.73	-641.37	593.33	-318.97	-589.99	486.06	-237.02	NaN	NaN	NaN	-885.69	621.33	-12.356	-866.84	654.46	-4.2134	-924.72	657.3	-12.248	-882.19	556.31	19.563	-868.53	435.85	-62.946	NaN	NaN	NaN	-572.1	305.68	-260.14	-549.21	359.42	-243.1	-595.56	344.58	-260.09	-490.23	267.09	-273.55	-494.87	82.617	-225.57	-486.91	98.392	-138.64	-956.44	311.87	-46.393	-916.08	338.57	-62.463	-956.11	365.22	-42.009	-972.17	239.3	-8.151	-1089.1	102.52	-63.844	-1078.7	117.3	-150.92	-535.76	50.443	-178.75	-477.14	68.725	-141.34	-479.28	58.09	-218.79	-364.45	85.291	-178.21	-371.33	78.149	-223.27	-1139.8	118.58	-100.63	-1094	84.082	-147.34	-1091.8	76.647	-69.472	-980.06	40.333	-112.35	-1004.9	25.953	-57.819
162	1.61	-901	1412.1	-112.5	-920.8	1151	-161.34	-786.14	1328	-110.72	-750.94	1180.7	-114.82	-819.83	1376.5	-328.12	-877.04	1342.2	79.116	-952.68	1311.6	-3.0829	-721.83	898.08	-199.69	-799.01	901.48	-14.773	-901.36	932.86	-212.02	-930.49	944.2	-144.58	-759.06	967.26	-275.45	-874.74	969.9	1.2804	-655.67	670.18	-273.93	-686.88	704.03	-282.69	-683.01	651.56	-287.74	-629.96	591.84	-318.39	-579.48	484.12	-235.44	NaN	NaN	NaN	-876.83	619.8	-12.301	-854.41	651.59	-6.4053	-916.19	656.38	-12.211	-873.43	554.78	19.58	-861.14	434.34	-62.985	NaN	NaN	NaN	-561.88	303.56	-257.29	-538.8	357.41	-241.27	-585.56	342.26	-257.39	-480.69	264.44	-272.17	-483.7	81.216	-221.94	-474.22	97.398	-135.33	-950.92	311.47	-46.701	-910.15	338.13	-62.516	-949.81	364.74	-42.171	-967.72	239.39	-8.305	-1087.3	104.65	-63.62	-1076.7	119.07	-150.65	-523.59	48.952	-174.43	-464.36	67.686	-137.9	-468.36	56.346	-215.44	-352.34	84.325	-177.58	-360.3	77.084	-222.29	-1137.6	121.51	-100.24	-1092.6	86.246	-147.07	-1090.2	78.937	-69.205	-979.56	40.293	-112.46	-1004.5	26.315	-57.946
163	1.62	-889.82	1410.8	-113.88	-909.37	1149.7	-162.5	-775.12	1326.6	-110.98	-740.05	1179.3	-114.6	-806.56	1374.8	-328.82	-867.41	1341.1	78.028	-942.57	1310.5	-4.5965	-710.14	896.76	-198.88	-788.69	900.28	-14.183	-889.62	931.35	-212.31	-919.11	942.77	-145.05	-746.97	965.55	-274.99	-864.98	968.64	0.99952	-644.34	668.22	-273.15	-675.4	702.35	-282.08	-671.7	649.84	-287.14	-618.97	589.15	-317.29	-568.73	482.15	-233.92	NaN	NaN	NaN	-867.89	618.46	-12.099	-845.27	650.19	-6.2181	-906.35	654.86	-11.955	-864.35	553.33	19.746	-854.01	433.03	-62.841	NaN	NaN	NaN	-552.28	301.39	-254.74	-528.8	355.37	-239.41	-575.72	340.08	-254.68	-471.52	261.89	-270.07	-475.09	79.051	-218.53	-464.1	95.602	-132.01	-945.67	311.48	-46.598	-904.59	337.13	-62.656	-943.49	364.56	-41.991	-963.45	239.57	-8.3992	-1083.9	106.07	-62.08	-1074.5	120.9	-150.35	-514.17	47.247	-170.03	-454.49	65.763	-134.67	-459.47	54.038	-212.19	-343.06	81.788	-176.58	-351.93	74.634	-221.11	-1135.5	124.45	-99.935	-1091.2	88.472	-146.72	-1089.4	81.064	-68.554	-978.28	40.915	-112.39	-1003.9	26.686	-58.095
